<svg xmlns="http://www.w3.org/2000/svg" xmlns:xlink="http://www.w3.org/1999/xlink" id="visual" width="900" height="600" version="1.1" viewBox="0 0 900 600"><path fill="#00cc8e" d="M0 79L64 109L129 67L193 55L257 61L321 79L386 79L450 97L514 79L579 91L643 55L707 109L771 91L836 79L900 85L900 0L836 0L771 0L707 0L643 0L579 0L514 0L450 0L386 0L321 0L257 0L193 0L129 0L64 0L0 0Z"/><path fill="#00b98a" d="M0 229L64 211L129 175L193 223L257 127L321 151L386 157L450 217L514 223L579 253L643 223L707 169L771 145L836 163L900 193L900 83L836 77L771 89L707 107L643 53L579 89L514 77L450 95L386 77L321 77L257 59L193 53L129 65L64 107L0 77Z"/><path fill="#00a784" d="M0 361L64 373L129 397L193 343L257 361L321 403L386 409L450 397L514 379L579 337L643 385L707 355L771 361L836 247L900 397L900 191L836 161L771 143L707 167L643 221L579 251L514 221L450 215L386 155L321 149L257 125L193 221L129 173L64 209L0 227Z"/><path fill="#00957c" d="M0 439L64 445L129 451L193 397L257 403L321 493L386 475L450 451L514 433L579 373L643 463L707 415L771 409L836 337L900 463L900 395L836 245L771 359L707 353L643 383L579 335L514 377L450 395L386 407L321 401L257 359L193 341L129 395L64 371L0 359Z"/><path fill="#038373" d="M0 601L64 601L129 601L193 601L257 601L321 601L386 601L450 601L514 601L579 601L643 601L707 601L771 601L836 601L900 601L900 461L836 335L771 407L707 413L643 461L579 371L514 431L450 449L386 473L321 491L257 401L193 395L129 449L64 443L0 437Z"/></svg>